<?xml version="1.0" standalone="no"?>
<!DOCTYPE svg PUBLIC "-//W3C//DTD SVG 20010904//EN"
 "http://www.w3.org/TR/2001/REC-SVG-20010904/DTD/svg10.dtd">
<svg version="1.0" xmlns="http://www.w3.org/2000/svg"
 width="347.000000pt" height="202.000000pt" viewBox="0 0 347.000000 202.000000"
 preserveAspectRatio="xMidYMid meet">
<metadata>
Created by potrace 1.16, written by Peter Selinger 2001-2019
</metadata>
<g transform="translate(0.000000,202.000000) scale(0.100000,-0.100000)"
fill="#000000" stroke="none">
<path d="M2130 1921 c-89 -28 -168 -96 -232 -202 -78 -129 -137 -314 -254
-802 -31 -131 -60 -234 -64 -230 -8 9 -172 467 -232 648 -22 66 -64 214 -93
329 -30 114 -56 210 -59 213 -7 8 -358 -45 -451 -68 -122 -29 -199 -72 -281
-153 -109 -109 -143 -197 -144 -366 0 -145 40 -212 126 -212 80 0 98 69 44
166 -89 156 -18 342 163 431 71 35 261 85 323 85 l31 0 -48 -240 c-58 -283
-141 -615 -198 -788 -97 -295 -202 -432 -331 -432 -49 0 -66 8 -141 67 -67 52
-121 59 -157 20 -47 -50 -15 -129 70 -174 49 -26 61 -28 173 -28 106 0 125 3
168 24 107 53 191 155 258 315 39 94 170 573 233 855 20 84 37 155 39 157 2 2
43 -121 92 -274 140 -442 228 -674 380 -1007 l28 -60 17 70 c10 39 43 180 75
315 178 771 303 1127 415 1185 41 21 110 19 172 -6 29 -11 68 -21 86 -21 100
0 113 138 16 178 -36 15 -180 18 -224 5z"/>
<path d="M2805 1851 c-94 -27 -164 -70 -246 -151 -123 -122 -176 -259 -151
-392 21 -113 58 -170 221 -341 181 -190 216 -248 215 -361 0 -90 -32 -164
-105 -241 -99 -104 -211 -155 -343 -155 -139 0 -215 64 -251 211 -10 40 -28
83 -42 100 -21 25 -32 29 -73 29 -38 0 -53 -5 -74 -26 -75 -75 -46 -206 66
-297 96 -78 189 -107 343 -107 174 0 323 47 460 145 85 60 138 123 187 221 36
73 41 93 45 171 10 167 -37 255 -265 495 -156 165 -182 207 -182 296 0 85 24
144 85 211 70 75 139 112 220 119 86 6 129 -3 170 -39 57 -50 69 -99 62 -249
l-6 -130 37 0 38 0 17 133 c10 72 29 176 43 230 15 54 24 100 22 103 -3 2 -54
13 -113 24 -136 25 -296 26 -380 1z"/>
</g>
</svg>
